<?xml version="1.0" encoding="utf-8"?>
<!-- Generator: Adobe Illustrator 25.0.0, SVG Export Plug-In . SVG Version: 6.00 Build 0)  -->
<svg version="1.1" xmlns="http://www.w3.org/2000/svg" xmlns:xlink="http://www.w3.org/1999/xlink" x="0px" y="0px"
	 viewBox="0 0 1920 1080" style="enable-background:new 0 0 1920 1080;" xml:space="preserve">
<style type="text/css">
	.st0{fill:#FFFFFF;}
	.st1{fill:#FCAEBB;}
</style>
<g id="图层_1">
	<path class="st0" d="M788,154c-23.94,8.22-42.03,20.27-52,27c-11.91,8.04-25.85,17.6-40,34c-8.86,10.28-21.06,27.01-30,51
		c-4.33,13.33-8.67,26.67-13,40c-13.1,2.62-31.46,7.73-51.25,18.5c-14.53,7.91-67.96,39.63-87.75,106.5
		c-3.62,12.23-17.92,65.28,6,117c11.4,24.65,29.05,43.74,45,61c29.92,32.37,40.62,31.51,53,56c7.75,15.33,16.14,40.55,18.73,62.61
		c0.34,2.92,1.16,9.03,2.27,18.39c1.79,15.04,4.23,27.16,6,35c3.93,11.67,12.06,30.7,29,49c11.75,12.69,23.89,20.88,33,26
		c11.16,8.27,25.89,18.2,44,28c31.78,17.19,58.67,25.69,70,29c30.77,9,54.33,11.21,84,14c25.35,2.38,43.17,2.64,73,3
		c84.7,1.02,104.95-2.22,117-5c1.51-0.35,25.63-6.05,53-19c18.05-8.54,31.09-17.19,42.39-29.55l0,0c1.67-1.55,3.68-3.45,5.93-5.66
		c0,0,4.05-3.99,7.41-7.57C1214.61,851.59,1226,832,1226,832c9.58-16.49,14.89-30.11,16-33c8.65-22.53,13.44-41.64,13.44-41.64
		c0.46-1.84,1.14-4.66,2.56-8.36c2.29-5.95,5.44-14.17,13-21c8.75-7.91,15.58-6.89,31.04-13.59c3.27-1.42,7.69-4.79,25.96-15.41
		c20.87-12.13,40.43-26.49,50.47-35.75C1427.51,618.03,1421,536.26,1420,525c-5.2-58.73-36.02-97.2-48.17-111.95
		c-24.87-30.17-52.53-47.17-69.83-56.05c-4.11-24.93-14.25-64.48-41.77-104.51C1247.52,234,1224.91,201.13,1186,182
		c-0.41-0.2-19.28-7.14-57-21c-14.21-5.22-21.51-7.84-31-8c-8.6-0.15-14.98,1.47-41,8c-11.18,4.36-22.52,8.7-34,13
		c-13.8,5.17-27.47,10.17-41,15c-17.11-12.62-46.18-30.43-86-39C878.46,146.22,835.81,137.59,788,154z"/>
	<path class="st0" d="M844,316"/>
</g>
<g id="图层_3">
	<path class="st1" d="M655.86,417.33c1.88-0.96,15.59-7.67,32-4c22.29,4.98,33.67,25.56,40,37c3.95,7.15,29.34,52.99,6,92
		c-2.74,4.58-17.9,29.91-45,32c-28.11,2.17-47.5-22.32-52-28c-26.38-33.31-16.75-78.48-5-102
		C635.87,436.31,642.07,424.33,655.86,417.33z"/>
	<path class="st1" d="M837.86,248.33c18.16-3.31,33.57,6.35,41,11c32.3,20.23,45.15,60.78,44,93c-0.46,12.92-1.02,52.48-29,70
		c-15.2,9.52-31.78,8.36-37,8c-26.41-1.84-43-18.74-48-24c-15.91-16.72-19.65-35.52-22-47c-5.57-27.16,0.65-48.58,2-53
		C791.33,298.25,804.74,254.36,837.86,248.33z"/>
	<path class="st1" d="M1130.86,276.33c18.19,4.83,28.36,17.88,33,24c20.5,27.08,15.72,60.08,14,72c-1.27,8.8-6.24,35.93-28,60
		c-10.57,11.7-22.68,25.1-42,27c-25.9,2.55-44.99-17.52-49-22c-19.46-21.75-18-49.84-17-69c1.58-30.24,13.28-50.47,16-55
		c5.68-9.46,12.94-21.54,28-30C1090.33,280.82,1108.77,270.46,1130.86,276.33z"/>
	<path class="st1" d="M1302.86,495.33c11.66,6.45,16.86,17.39,20,24c8.66,18.21,6.62,35.32,5,49c-2.74,23.1-11.32,39.22-14,44
		c-4.85,8.65-12.46,21.9-28,33c-10.19,7.28-24.52,17.97-43,16c-20.34-2.17-32.98-18.18-36-22c-21.95-27.8-15.18-68.77-3-94
		c3.21-6.65,18.64-36.72,52-49C1265.08,492.94,1285.18,485.55,1302.86,495.33z"/>
</g>
<g id="图层_2">
	<path class="st1" d="M1032.43,538.65c5.81,5.88,26.81,25.51,47.08,54.55c11.36,16.28,13.54,18.97,28.49,39.8
		c17.02,23.72,18.69,25.29,25.38,37.27c5.24,9.39,15.94,28.99,18.96,56.12c1.71,15.38,4.52,40.69-9.66,66.57
		c-18.46,33.68-52.51,44.23-60.65,46.75c-32.02,9.92-59.03,2.03-72-1.95c-25.72-7.89-43.97-21.84-55.2-32.57
		c-4.83-4.62-12.4-4.78-17.35-0.3c-5.14,4.64-11.29,9.42-18.54,13.85c-7.77,4.74-31.99,19.11-65.11,18.46
		c-9.79-0.19-53.07-2.34-84.01-38.66c-5.02-5.89-31.08-37.77-25.52-82.52c3.45-27.74,17.34-46.72,24.04-54.77
		c12.59-13.81,25.7-27.8,39.35-41.91c11.39-11.78,23.11-23.33,34.33-34.35c15.57-17.67,29.78-33.37,41-43
		c15.33-13.16,22.93-23.27,42-33c19.85-10.13,29.32-13.78,43-13C988.02,497.15,1005.27,511.15,1032.43,538.65z"/>
</g>
</svg>
