<svg width="950" height="850.0000000000001" xmlns="http://www.w3.org/2000/svg" xml:space="preserve" version="1.1">

 <g>
  <title>Layer 1</title>
  <g id="svg_8"/>
  <g id="svg_9">
   <g id="图层_1">
    <path style="--darkreader-inline-fill:#191a19;" id="svg_1" fill="#FFFFFF" d="m299.35754,41.73679c-23.94,8.22 -42.03,20.27 -52,27c-11.91,8.04 -25.85,17.6 -40,34c-8.86,10.28 -21.06,27.01 -30,51c-4.33,13.33 -8.67,26.67 -13,40c-13.1,2.62 -31.46,7.73 -51.25,18.5c-14.53,7.91 -67.96,39.63 -87.75,106.5c-3.62,12.23 -17.92,65.28 6,117c11.4,24.65 29.05,43.74 45,61c29.92,32.37 40.62,31.51 53,56c7.75,15.33 16.14,40.55 18.73,62.61c0.34,2.92 1.16,9.03 2.27,18.39c1.79,15.04 4.23,27.16 6,35c3.93,11.67 12.06,30.7 29,49c11.75,12.69 23.89,20.88 33,26c11.16,8.27 25.89,18.2 44,28c31.78,17.19 58.67,25.69 70,29c30.77,9 54.33,11.21 84,14c25.35,2.38 43.17,2.64 73,3c84.7,1.02 104.95,-2.22 117,-5c1.51,-0.35 25.63,-6.05 53,-19c18.05,-8.54 31.09,-17.19 42.39,-29.55l0,0c1.67,-1.55 3.68,-3.45 5.93,-5.66c0,0 4.05,-3.99 7.41,-7.57c10.88,-11.63 22.27,-31.22 22.27,-31.22c9.58,-16.49 14.89,-30.11 16,-33c8.65,-22.53 13.44,-41.64 13.44,-41.64c0.46,-1.84 1.14,-4.66 2.56,-8.36c2.29,-5.95 5.44,-14.17 13,-21c8.75,-7.91 15.58,-6.89 31.04,-13.59c3.27,-1.42 7.69,-4.79 25.96,-15.41c20.87,-12.13 40.43,-26.49 50.47,-35.75c49.04,-45.22 42.53,-126.99 41.53,-138.25c-5.2,-58.73 -36.02,-97.2 -48.17,-111.95c-24.87,-30.17 -52.53,-47.17 -69.83,-56.05c-4.11,-24.93 -14.25,-64.48 -41.77,-104.51c-12.71,-18.49 -35.32,-51.36 -74.23,-70.49c-0.41,-0.2 -19.28,-7.14 -57,-21c-14.21,-5.22 -21.51,-7.84 -31,-8c-8.6,-0.15 -14.98,1.47 -41,8c-11.18,4.36 -22.52,8.7 -34,13c-13.8,5.17 -27.47,10.17 -41,15c-17.11,-12.62 -46.18,-30.43 -86,-39c-17.54,-3.78 -60.19,-12.41 -108,4z" class="st0"/>
    <path style="--darkreader-inline-fill:#ffffff;" id="svg_2" fill="#FFFFFF" d="m355.35754,203.73679" class="st0"/>
   </g>
   <g id="图层_3">
    <path style="--darkreader-inline-fill:#500b15;" id="svg_3" fill="#FCAEBB" d="m167.21754,305.06679c1.88,-0.96 15.59,-7.67 32,-4c22.29,4.98 33.67,25.56 40,37c3.95,7.15 29.34,52.99 6,92c-2.74,4.58 -17.9,29.91 -45,32c-28.11,2.17 -47.5,-22.32 -52,-28c-26.38,-33.31 -16.75,-78.48 -5,-102c4.01,-8.02 10.21,-20 24,-27z" class="st1"/>
    <path style="--darkreader-inline-fill:#500b15;" id="svg_4" fill="#FCAEBB" d="m349.21754,136.06679c18.16,-3.31 33.57,6.35 41,11c32.3,20.23 45.15,60.78 44,93c-0.46,12.92 -1.02,52.48 -29,70c-15.2,9.52 -31.78,8.36 -37,8c-26.41,-1.84 -43,-18.74 -48,-24c-15.91,-16.72 -19.65,-35.52 -22,-47c-5.57,-27.16 0.65,-48.58 2,-53c2.47,-8.08 15.88,-51.97 49,-58z" class="st1"/>
    <path style="--darkreader-inline-fill:#500b15;" id="svg_5" fill="#FCAEBB" d="m642.21754,164.06679c18.19,4.83 28.36,17.88 33,24c20.5,27.08 15.72,60.08 14,72c-1.27,8.8 -6.24,35.93 -28,60c-10.57,11.7 -22.68,25.1 -42,27c-25.9,2.55 -44.99,-17.52 -49,-22c-19.46,-21.75 -18,-49.84 -17,-69c1.58,-30.24 13.28,-50.47 16,-55c5.68,-9.46 12.94,-21.54 28,-30c4.47,-2.51 22.91,-12.87 45,-7z" class="st1"/>
    <path style="--darkreader-inline-fill:#500b15;" id="svg_6" fill="#FCAEBB" d="m814.21754,383.06679c11.66,6.45 16.86,17.39 20,24c8.66,18.21 6.62,35.32 5,49c-2.74,23.1 -11.32,39.22 -14,44c-4.85,8.65 -12.46,21.9 -28,33c-10.19,7.28 -24.52,17.97 -43,16c-20.34,-2.17 -32.98,-18.18 -36,-22c-21.95,-27.8 -15.18,-68.77 -3,-94c3.21,-6.65 18.64,-36.72 52,-49c9.22,-3.39 29.32,-10.78 47,-1z" class="st1"/>
   </g>
   <g id="图层_2">
    <path style="--darkreader-inline-fill:#500b15;" id="svg_7" fill="#FCAEBB" d="m543.78754,426.38679c5.81,5.88 26.81,25.51 47.08,54.55c11.36,16.28 13.54,18.97 28.49,39.8c17.02,23.72 18.69,25.29 25.38,37.27c5.24,9.39 15.94,28.99 18.96,56.12c1.71,15.38 4.52,40.69 -9.66,66.57c-18.46,33.68 -52.51,44.23 -60.65,46.75c-32.02,9.92 -59.03,2.03 -72,-1.95c-25.72,-7.89 -43.97,-21.84 -55.2,-32.57c-4.83,-4.62 -12.4,-4.78 -17.35,-0.3c-5.14,4.64 -11.29,9.42 -18.54,13.85c-7.77,4.74 -31.99,19.11 -65.11,18.46c-9.79,-0.19 -53.07,-2.34 -84.01,-38.66c-5.02,-5.89 -31.08,-37.77 -25.52,-82.52c3.45,-27.74 17.34,-46.72 24.04,-54.77c12.59,-13.81 25.7,-27.8 39.35,-41.91c11.39,-11.78 23.11,-23.33 34.33,-34.35c15.57,-17.67 29.78,-33.37 41,-43c15.33,-13.16 22.93,-23.27 42,-33c19.85,-10.13 29.32,-13.78 43,-13c20,1.16 37.25,15.16 64.41,42.66z" class="st1"/>
   </g>
  </g>
 </g>
</svg>